<svg version="1.2" xmlns="http://www.w3.org/2000/svg" viewBox="0 0 522 522" width="522" height="522">
	<style>
		.s0 { fill: #000000 } 
	</style>
	<path id="Path 0" fill-rule="evenodd" class="s0" d="m257.58 42c14.6 0 17.5 0.24 17.92 1.5 0.39 1.17 2.28 1.5 8.5 1.5 4.4 0 8.23 0.45 8.5 1 0.27 0.55 2.3 1 4.5 1 2.2 0 4.17 0.34 4.39 0.75 0.21 0.41 3.81 1.09 8 1.5 4.18 0.41 7.84 1.2 8.11 1.75 0.27 0.55 1.63 1 3 1 1.38 0 2.73 0.45 3 1 0.27 0.55 1.4 1 2.5 1 1.1 0 2.79 0.41 3.75 0.92 0.96 0.5 3.89 1.85 6.5 3 2.61 1.14 5.09 2.07 5.5 2.06 0.41-0.01 2.33 0.7 4.25 1.57 1.93 0.88 5.19 2.47 7.25 3.52 2.06 1.06 4.31 1.91 5 1.89 0.69-0.03 1.93 0.7 2.75 1.61 0.83 0.91 3.3 2.51 5.5 3.56 2.2 1.05 4.89 2.46 5.99 3.14 1.09 0.68 2.66 2 3.5 2.94 0.83 0.94 1.96 1.71 2.51 1.72 0.55 0 1.9 0.93 3 2.07 1.1 1.14 2.45 2.04 3 2.01 0.55-0.02 2.58 1.55 4.5 3.49 1.93 1.94 3.95 3.52 4.5 3.51 0.55-0.02 3.48 2.45 6.5 5.49 3.02 3.04 5.95 5.51 6.5 5.49 0.55-0.02 3.81 2.9 7.25 6.49 3.44 3.58 6.24 6.86 6.24 7.27-0.01 0.41 2.47 3.22 5.51 6.25 3.04 3.03 5.51 5.95 5.49 6.5-0.02 0.55 1.14 2.13 2.59 3.5 1.45 1.38 3.03 3.4 3.52 4.5 0.49 1.1 1.46 2.88 2.15 3.95 0.69 1.07 2.05 2.87 3.02 4 0.97 1.13 1.76 2.61 1.75 3.3-0.01 0.69 0.43 1.25 0.98 1.25 0.55 0 0.99 0.56 0.97 1.25-0.02 0.69 0.89 2.15 2.03 3.25 1.14 1.1 2.06 2.45 2.05 3-0.01 0.55 1.6 4.38 3.58 8.5 1.97 4.13 4.87 10.2 6.44 13.5 1.56 3.3 3.2 8.19 3.64 10.87 0.43 2.68 1.13 5.04 1.54 5.25 0.41 0.21 0.75 1.51 0.75 2.88 0 1.38 0.45 2.72 1 3 0.55 0.28 0.99 2.19 0.98 4.25-0.01 2.06 0.4 4.2 0.9 4.75 0.5 0.55 1.21 3.03 1.56 5.5 0.36 2.47 0.89 6.97 1.19 10 0.3 3.03 0.96 5.95 1.47 6.5 0.52 0.55 0.93 5.61 0.92 11.25-0.01 6.18 0.38 10.25 0.98 10.25 0.59 0 1 3.5 1 8.5 0 5-0.41 8.5-1 8.5-0.61 0-1 4.33-1 11 0 6.33-0.42 11.21-1 11.5-0.55 0.27-1 2.98-1 6 0 3.02-0.45 5.73-1 6-0.55 0.27-1 2.07-1 4 0 1.93-0.45 3.73-1 4-0.55 0.27-1 1.85-1 3.5 0 1.65-0.45 3.23-1 3.5-0.55 0.27-1 1.85-1 3.5 0 1.65-0.38 3.79-0.84 4.75-0.47 0.96-1.37 2.76-2 4-0.64 1.24-0.93 2.93-0.66 3.75 0.27 0.82 0.05 1.73-0.5 2-0.55 0.27-0.99 1.29-0.98 2.25 0.02 0.96-1.29 4.45-2.89 7.75-1.61 3.3-4.09 8.48-5.51 11.5-1.42 3.02-2.57 5.95-2.55 6.5 0.01 0.55-0.72 1.68-1.62 2.5-0.91 0.82-2.38 3.07-3.27 5-0.89 1.93-2.43 4.4-3.42 5.5-0.99 1.1-1.79 2.34-1.78 2.75 0.01 0.41-0.42 1.31-0.96 2-0.55 0.69-2.12 2.71-3.5 4.5-1.39 1.79-2.51 3.59-2.5 4 0 0.41-1.8 2.55-4.02 4.75-2.22 2.2-4.02 4.45-4 5 0.02 0.55-1.56 2.57-3.5 4.5-1.94 1.93-3.53 4.06-3.52 4.75 0.01 0.69-0.54 1.25-1.23 1.24-0.69 0-5.07 3.83-9.75 8.51-4.67 4.68-8.95 8.5-9.5 8.49-0.55-0.01-2.57 1.57-4.5 3.51-1.92 1.94-3.95 3.55-4.5 3.56-0.55 0.01-2.57 1.37-4.5 3.02-1.92 1.64-4.06 3.42-4.75 3.95-0.69 0.54-1.59 0.98-2 1-0.41 0.01-1.6 0.8-2.63 1.75-1.03 0.94-2.83 2.25-4 2.91-1.17 0.65-3.92 2.06-6.12 3.14-2.2 1.07-4.67 2.69-5.5 3.6-0.82 0.91-2.29 1.64-3.25 1.61-0.96-0.02-2.76 0.52-4 1.21-1.24 0.69-2.48 1.51-2.75 1.83-0.27 0.32-2.98 1.43-6 2.45-3.02 1.03-5.93 2.23-6.45 2.67-0.52 0.44-1.99 0.8-3.25 0.8-1.27 0-2.3 0.45-2.3 1 0 0.55-1.12 1-2.5 1-1.37 0-2.73 0.45-3 1-0.27 0.55-1.62 1-3 1-1.37 0-2.73 0.45-3 1-0.27 0.55-1.62 1-3 1-1.37 0-2.73 0.45-3 1-0.27 0.55-4.37 1.34-9.11 1.75-4.73 0.41-8.78 1.09-9 1.5-0.21 0.41-2.87 0.75-5.89 0.75-4 0-5.64 0.41-6 1.5-0.41 1.22-2.67 1.5-12 1.5-11.26 0-11.5-0.05-11.5-2.25 0.01-2.2-0.35-2.27-14.75-3.05-8.11-0.44-15.2-1.23-15.75-1.76-0.55-0.54-2.24-0.97-3.75-0.96-1.51 0.01-2.75-0.43-2.75-0.98 0-0.55 1.46-1.01 3.25-1.02 1.79-0.01 3.7 0.42 4.25 0.95 0.55 0.53 6.18 1.04 12.5 1.13 7.76 0.11 11.58-0.2 11.75-0.95 0.16-0.73 3.85-1.11 10.75-1.11 6 0 10.71-0.43 11-1 0.27-0.55 4.1-1 8.5-1 5.41 0 8.2-0.4 8.61-1.25 0.48-1 0.83-0.99 1.75 0.02 0.63 0.69 2.83 1.26 4.89 1.25 2.06-0.01 3.98-0.47 4.25-1.02 0.27-0.55 2.08-1 4-1 1.93 0 3.73-0.45 4-1 0.27-0.55 1.85-1 3.5-1 1.65 0 3.17-0.34 3.38-0.75 0.21-0.41 2.35-1.11 4.75-1.54 2.4-0.43 5.61-1.33 7.12-2 1.52-0.67 2.75-1.55 2.75-1.96 0-0.41-0.67-0.75-1.5-0.75-0.82 0-1.5-0.45-1.5-1 0-0.55 0.56-0.98 1.25-0.96 0.69 0.03 1.93-0.69 2.75-1.59 0.83-0.91 2.85-2.24 4.5-2.96 1.65-0.71 4.35-1.62 6-2.01 1.65-0.39 4.58-2.36 6.5-4.38 1.93-2.02 5.08-4.48 7-5.46 1.93-0.98 4.45-2.32 5.62-2.96 1.17-0.65 2.97-1.96 4-2.9 1.03-0.95 2.33-1.73 2.88-1.73 0.55-0.01 2.35-1.38 4-3.05 1.65-1.67 3.34-3.03 3.75-3.02 0.41 0.01 3.05-1.89 5.87-4.23 2.82-2.34 8.45-7.4 12.53-11.25 4.07-3.85 7.39-7.56 7.38-8.25-0.02-0.69-0.48-1.25-1.03-1.25-0.55 0-1.23 0.45-1.5 1-0.27 0.55-2.41 1.87-4.75 2.93-2.34 1.06-6.05 3.76-8.25 6.01-2.2 2.25-4.45 4.07-5 4.04-0.55-0.02-1.9 0.88-3 2.02-1.1 1.14-2.56 2.05-3.25 2.03-0.69-0.02-1.24 0.53-1.22 1.22 0.01 0.69-0.32 0.91-0.75 0.49-0.43-0.43 0.8-2.35 2.72-4.27 1.93-1.93 3.95-3.51 4.5-3.52 0.55-0.01 5.61-4.73 11.25-10.49 5.64-5.75 10.26-10.8 10.27-11.21 0.01-0.41 1.03-1.77 2.25-3.03 1.23-1.25 2.68-2.25 3.23-2.22 0.55 0.03 2.01-1.09 3.25-2.48 1.24-1.38 2.24-2.86 2.22-3.27-0.02-0.41 0.89-1.65 2.03-2.75 1.14-1.1 2.06-2.45 2.06-3-0.01-0.55 0.77-1.85 1.72-2.88 0.94-1.03 2.24-2.83 2.88-4 0.65-1.17 2.43-4.6 3.97-7.62 1.54-3.02 3.15-5.61 3.58-5.75 0.44-0.14 0.79-1.15 0.79-2.25 0-1.1 0.34-2 0.75-2 0.41 0 1.38-1.46 2.14-3.25 0.76-1.79 2.45-5.61 3.75-8.5 1.3-2.89 2.36-6.37 2.36-7.75 0-1.37 0.45-2.5 1-2.5 0.55 0 1-1.12 1-2.5 0-1.37 0.45-2.73 1-3 0.55-0.27 1-1.62 1-3 0-1.37 0.45-2.73 1-3 0.55-0.27 1-1.85 1-3.5 0-1.65 0.45-3.23 1-3.5 0.55-0.27 0.72-1.74 0.37-3.25-0.37-1.61-0.16-3.06 0.5-3.5 0.66-0.44 1.13-3.67 1.13-7.75 0-3.85 0.45-7.23 1-7.5 0.58-0.29 1-5.5 1-12.5 0-7 0.42-12.21 1-12.5 0.55-0.27 1-2.52 1-5 0-2.47-0.45-4.72-1-5-0.55-0.28-1-2.75-1-5.5 0-2.75 0.45-5.22 1-5.5 0.55-0.28 1-1.4 1-2.5 0-1.1-0.45-2-1-2-0.56 0-1-2.67-1-6 0-3.3-0.34-6.18-0.75-6.39-0.41-0.22-1.09-3.26-1.5-6.75-0.4-3.5-0.85-7.1-1-8.01-0.14-0.91-0.6-2.04-1.03-2.5-0.43-0.47-0.76-2.31-0.75-4.1 0.02-1.79-0.42-3.25-0.97-3.25-0.55 0-1-1.13-1-2.5 0-1.38-0.45-2.72-1-3-0.55-0.28-1-2.07-1-4 0-1.93-0.45-3.5-1-3.5-0.55 0-1-0.9-1-2 0-1.1-0.45-2-1-2-0.55 0-1-0.68-1-1.5 0-0.82-1.57-4.43-3.5-8-1.92-3.57-3.49-7.06-3.48-7.75 0.01-0.69-0.89-2.26-2-3.5-1.11-1.24-2.02-2.93-2.02-3.75 0-0.82-0.45-1.5-1-1.5-0.55 0-1.23-0.79-1.52-1.75-0.28-0.96-1.07-2.7-1.75-3.87-0.67-1.17-2.01-2.97-2.95-4-0.95-1.03-1.73-2.33-1.72-2.88 0-0.55-0.92-1.9-2.06-3-1.14-1.1-2.04-2.45-2.01-3 0.04-0.55-1.09-2.13-2.49-3.5-1.4-1.38-2.54-2.84-2.53-3.25 0.02-0.41-1.88-3.24-4.22-6.29-2.34-3.04-4.7-5.51-5.25-5.49-0.55 0.02-4.82-3.83-9.5-8.56-4.67-4.73-10.25-9.79-12.39-11.25-2.14-1.47-4.68-3.11-5.64-3.66-0.96-0.55-2.97-2.12-4.47-3.5-1.5-1.37-3.69-3.03-4.86-3.68-1.18-0.64-3.71-1.97-5.64-2.94-1.92-0.98-3.73-2.05-4-2.38-0.27-0.33-4.1-2.32-8.5-4.42-4.4-2.1-10.02-4.78-12.5-5.95-2.48-1.17-4.61-2.47-4.75-2.88-0.14-0.41-1.37-0.75-2.75-0.75-1.37 0-2.73-0.45-3-1-0.27-0.55-1.62-1-3-1-1.37 0-2.73-0.45-3-1-0.27-0.55-1.62-1-3-1-1.37 0-2.73-0.45-3-1-0.27-0.55-3.48-1.34-7.11-1.75-3.64-0.41-6.79-1.09-7-1.5-0.22-0.41-2.64-0.75-5.39-0.75-2.75 0-5.22-0.45-5.48-1-0.27-0.55-4.09-1-8.5-1-4.41 0-8.25-0.45-8.52-1-0.3-0.6-6.33-1-15-1-8.67 0-14.7 0.4-15 1-0.27 0.55-3.2 1-6.5 1-3.3 0-6.22 0.45-6.5 1-0.27 0.55-2.3 1-4.5 1-2.2 0-4.17 0.34-4.39 0.75-0.21 0.41-3.36 1.09-7 1.5-3.63 0.41-6.83 1.2-7.11 1.75-0.27 0.55-1.62 1-3 1-1.37 0-2.72 0.45-3 1-0.27 0.55-1.62 1-3 1-1.37 0-2.72 0.45-3 1-0.27 0.55-1.62 1-3 1-1.37 0-2.5 0.45-2.5 1 0 0.55-0.9 1-2 1-1.1 0-2 0.45-2 1 0 0.55-0.79 0.99-1.75 0.98-0.96-0.01-3.32 0.69-5.25 1.56-1.92 0.87-4.17 2.01-5 2.53-0.82 0.52-3.42 1.95-5.77 3.19-2.34 1.23-4.26 2.58-4.25 2.99 0.01 0.41-0.88 0.75-1.98 0.75-1.1 0-2 0.45-2 1 0 0.55-0.79 1.21-1.75 1.47-0.96 0.26-2.63 1.05-3.7 1.75-1.08 0.7-4.79 3.42-8.25 6.03-3.47 2.61-6.52 4.75-6.8 4.75-0.27 0-3.24 2.36-6.6 5.25-3.35 2.89-9.88 8.85-14.52 13.25-4.64 4.4-8.44 8.45-8.45 9-0.01 0.55-1.23 2.47-2.72 4.26-1.49 1.79-3.93 4.71-5.42 6.5-1.49 1.78-2.74 3.69-2.77 4.24-0.04 0.55-0.85 1.85-1.8 2.88-0.94 1.03-2.28 2.83-2.95 4-0.68 1.17-1.47 2.91-1.75 3.87-0.29 0.96-0.97 1.75-1.52 1.75-0.55 0-1 0.9-1 2 0 1.1-0.9 2.56-2 3.25-1.11 0.69-1.99 2.15-1.97 3.25 0.02 1.1-0.89 2.9-2.03 4-1.14 1.1-2.05 2.45-2.04 3 0.02 0.55-1.1 3.25-2.48 6-1.38 2.75-2.51 5.79-2.5 6.75 0.01 0.96-0.43 1.75-0.98 1.75-0.55 0-1 1.13-1 2.5 0 1.38-0.45 2.72-1 3-0.55 0.28-1 1.63-1 3 0 1.38-0.45 2.72-1 3-0.55 0.28-1 1.63-1 3 0 1.38-0.45 2.72-1 3-0.55 0.28-1.34 3.48-1.75 7.11-0.41 3.64-1.09 6.79-1.5 7-0.41 0.22-0.75 1.96-0.75 3.89 0 1.93-0.45 3.72-1 4-0.55 0.28-1 3.2-1 6.5 0 3.33-0.44 6-1 6-0.62 0-1 5.33-1 14 0 8.67-0.38 14-1 14-0.55 0-1 1.13-1 2.5 0 1.38-0.45 2.5-1 2.5-0.55 0-1.01-1.69-1.03-3.75-0.03-3.6-0.1-3.67-1.62-1.75-1.45 1.84-1.53 0.32-0.99-18.5 0.35-12.06 1.02-20.91 1.63-21.5 0.58-0.55 1.04-2.46 1.03-4.25-0.01-1.79-0.47-3.47-1.02-3.75-0.55-0.28-1-1.85-1-3.5 0-1.65 0.45-3.22 1-3.5 0.55-0.28 1-2.07 1-4 0-1.93 0.45-3.5 1-3.5 0.55 0 1-1.12 1-2.5 0-1.37 0.45-2.72 1-3 0.55-0.28 1-1.4 1-2.5 0-1.1 0.9-3.57 2-5.5 1.1-1.93 2-4.4 2-5.5 0-1.1 0.45-2.22 1-2.5 0.55-0.28 1.01-1.29 1.01-2.25 0.01-0.96 2.13-6.03 4.71-11.25 2.58-5.22 4.96-9.72 5.29-10 0.33-0.28 1.36-2.19 2.29-4.25 0.94-2.06 1.69-4.09 1.67-4.5-0.02-0.41 0.89-1.65 2.03-2.75 1.14-1.1 2.04-2.45 2-3-0.04-0.55 0.86-1.9 2-3 1.14-1.1 2.04-2.45 2.01-3-0.04-0.55 1.09-2.13 2.49-3.5 1.4-1.37 2.53-2.95 2.51-3.5-0.02-0.55 1.77-2.8 3.99-5 2.22-2.2 4.04-4.45 4.06-5 0.02-0.55 6.31-7.08 13.99-14.5 7.68-7.42 15.64-14.94 17.7-16.71 2.06-1.77 4.2-3.22 4.75-3.23 0.55-0.01 2.2-1.26 3.67-2.79 1.47-1.52 5.52-4.2 9-5.95 3.48-1.75 7.01-3.9 7.83-4.79 0.83-0.89 2.06-1.6 2.75-1.57 0.69 0.02 1.25-0.41 1.25-0.96 0-0.55 0.9-1 2-1 1.1 0 2-0.34 2-0.75-0.01-0.41 1.79-1.54 4-2.5 2.2-0.96 4.68-1.75 5.5-1.75 0.83 0 3.41-1.01 5.75-2.25 2.34-1.24 4.36-2.59 4.5-3 0.14-0.41 1.38-0.75 2.75-0.75 1.38 0 2.73-0.45 3-1 0.28-0.55 1.63-1 3-1 1.38 0 2.73-0.45 3-1 0.28-0.55 2.08-1 4-1 1.93 0 3.5-0.45 3.5-1 0-0.55 2.75-1.34 6.11-1.75 3.36-0.41 6.29-1.09 6.5-1.5 0.22-0.41 2.23-0.75 4.49-0.75 2.25 0 4.28-0.45 4.5-1 0.22-0.55 3.55-1 7.4-1 5.3 0 7.14-0.37 7.58-1.5 0.49-1.25 3.45-1.5 18-1.5zm0.67 70.06c0.41-0.03 1.02 0.5 1.36 1.19 0.33 0.69 0.33 1.92-0.01 2.75-0.34 0.83-1.48 2.85-2.54 4.5-1.05 1.65-1.95 4.46-1.99 6.25-0.04 1.79-0.52 3.25-1.07 3.25-0.55 0-0.99 1.01-0.98 2.25 0.01 1.24-0.89 3.26-2 4.5-1.11 1.24-2.01 2.81-2 3.5 0.01 0.69-1.12 3.5-2.5 6.25-1.38 2.75-2.51 5.56-2.52 6.25 0 0.69-0.9 2.82-2 4.75-1.1 1.93-2 4.18-2 5 0 1.08 1.11 1.5 4 1.5 2.2 0 4.23-0.45 4.5-1 0.28-0.55 3.2-1 6.5-1 3.3 0 6.23-0.45 6.5-1 0.27-0.55 4.33-1 9-1 5 0 8.5-0.41 8.5-1 0-0.61 4.5-1 11.5-1 6.67 0 11.71-0.42 12-1 0.32-0.63 11-1 29-1 26.47 0 28.5 0.12 28.52 1.75 0.01 0.96-0.53 2.31-1.2 3-0.89 0.91-6.4 1.25-20.52 1.25-11.87 0-19.49 0.39-19.8 1-0.29 0.58-5.5 1-12.5 1-7 0-12.21 0.42-12.5 1-0.27 0.55-3.31 0.97-6.75 0.93-3.44-0.03-8.95 0.23-12.25 0.59-3.3 0.36-6.43 1.07-6.95 1.57-0.52 0.5-3.11 0.91-5.75 0.91-2.64 0-5.03 0.45-5.3 1-0.27 0.55-2.3 1-4.5 1-2.2 0-4.22 0.45-4.5 1-0.27 0.55-1.96 1.03-3.75 1.07-1.79 0.04-4.6 0.87-6.25 1.83-1.65 0.97-3.14 2.63-3.32 3.68-0.17 1.06-0.96 3.38-1.75 5.17-0.79 1.79-1.43 3.93-1.43 4.75 0 0.82-0.52 2.51-1.16 3.75-0.63 1.24-1.53 3.04-2 4-0.46 0.96-0.84 2.43-0.84 3.25 0 0.82-0.45 2.4-1 3.5-0.55 1.1-1.45 2.9-2 4-0.55 1.1-1 2.68-1 3.5 0 0.82-0.45 1.5-1 1.5-0.55 0-1 1.12-1 2.5 0 1.37-0.45 2.72-1 3-0.55 0.28-1.34 2.8-1.75 5.61-0.41 2.82-1.09 5.29-1.5 5.5-0.41 0.22-0.75 1.51-0.75 2.89 0 1.37-0.34 2.5-0.75 2.51-0.41 0-1.32 1.24-2.01 2.75-0.69 1.51-1.26 3.53-1.25 4.49 0.01 0.96-0.44 1.97-0.99 2.25-0.55 0.28-1 1.62-1 3 0 1.37-0.45 2.72-1 3-0.55 0.28-1 1.62-1 3 0 1.37-0.45 2.5-1 2.5-0.55 0-1.22 2.25-1.5 5-0.27 2.75-0.95 5.23-1.5 5.5-0.55 0.27-1 1.62-1 3 0 1.37-0.45 2.5-1 2.5-0.55 0-1 1.12-1 2.5 0 1.37-0.45 2.73-1 3-0.55 0.27-1 1.62-1 3 0 1.37-0.45 2.73-1 3-0.55 0.27-1 1.62-1 3 0 2.21 0.32 2.43 2.75 1.87 1.51-0.34 6.58-0.81 11.25-1.03 4.68-0.22 9.4-0.82 10.5-1.34 1.1-0.51 5.38-1.17 9.5-1.45 4.13-0.29 10.88-0.77 15-1.08 4.13-0.31 8.18-0.81 9-1.13 0.83-0.31 4.31-0.52 7.75-0.45 3.44 0.06 6.48-0.34 6.75-0.89 0.27-0.55 3.2-1 6.5-1 3.3 0 6.23-0.45 6.5-1 0.27-0.55 2.52-1 5-1 2.48 0 4.5-0.45 4.5-1 0-0.55 1.13-1 2.5-1 1.93 0 2.5 0.51 2.48 2.25 0 1.24-1.47 3.72-3.25 5.52-2.52 2.54-4.06 3.26-6.98 3.25-2.06-0.01-3.98 0.43-4.25 0.98-0.27 0.55-4.1 1-8.5 1-4.4 0-8.23 0.45-8.5 1-0.27 0.55-3.87 1-8 1-4.12 0-7.72 0.45-8 1-0.27 0.55-4.1 1-8.5 1-4.4 0-8.22 0.45-8.5 1-0.29 0.57-7.36 1.21-16.5 1.5-9.14 0.29-16.21 0.93-16.5 1.5-0.27 0.55-1.53 1-2.8 1-1.26 0-2.85 0.56-3.52 1.25-0.67 0.69-1.21 2.26-1.2 3.5 0.01 1.24-0.43 2.48-0.98 2.75-0.55 0.27-1 1.62-1 3 0 1.37-0.45 2.73-1 3-0.55 0.27-1 1.85-1 3.5 0 1.65-0.45 3.23-1 3.5-0.55 0.27-1 1.4-1 2.5 0 1.1-0.45 2.9-1 4-0.55 1.1-1.45 2.9-2 4-0.55 1.1-1 2.9-1 4 0 1.1-0.45 2.23-1 2.5-0.55 0.27-1.34 3.21-1.75 6.51-0.41 3.31-1.09 6.01-1.5 6-0.41 0-0.75 1.11-0.75 2.49 0 1.37-0.45 2.73-1 3-0.55 0.27-1 2.07-1 4 0 1.93-0.45 3.73-1 4-0.55 0.27-1 1.85-1 3.5 0 1.65-0.45 3.23-1 3.5-0.55 0.27-1 2.07-1 4 0 1.93-0.45 3.73-1 4-0.55 0.27-1.2 2.19-1.44 4.25-0.23 2.06-0.86 6-1.39 8.75-0.8 4.16-0.69 5.3 0.68 6.78 1.54 1.66 1.53 1.78-0.1 1.75-1.34-0.02-1.6 0.5-1.13 2.22 0.34 1.24 1.35 3.05 2.25 4.03 1.24 1.36 3.13 1.78 7.88 1.75 3.44-0.02 6.48-0.48 6.75-1.03 0.28-0.55 2.98-1 6-1 3.03 0 5.73-0.45 6-1 0.28-0.55 1.85-1 3.5-1 1.65 0 3.23-0.45 3.5-1 0.28-0.55 2.3-1 4.5-1 2.2 0 4.79-0.43 5.75-0.95 0.96-0.52 4.34-1.2 7.5-1.5 3.16-0.3 5.98-1 6.25-1.55 0.28-0.55 1.85-1 3.5-1 1.65 0 3.23-0.45 3.5-1 0.28-0.55 1.85-1 3.5-1 1.65 0 3.23-0.45 3.5-1 0.28-0.55 1.85-1 3.5-1 1.65 0 3.23-0.45 3.5-1 0.28-0.55 1.85-1 3.5-1 1.65 0 3.17-0.34 3.38-0.75 0.21-0.41 2.57-1.14 5.25-1.62 2.68-0.48 5.66-1.27 6.62-1.75 0.96-0.48 2.65-1.33 3.75-1.88 1.1-0.55 2.56-1 3.25-1 0.69 0 5.52-2.06 10.75-4.58 5.23-2.51 10.29-4.99 11.25-5.5 1.17-0.62 2.9-0.43 5.25 0.58 1.93 0.82 3.73 2.18 4 3 0.27 0.82-0.14 2.18-0.93 3-0.78 0.82-2.13 1.5-3 1.5-0.86 0-1.56 0.34-1.55 0.75 0.01 0.41-1.66 1.43-3.7 2.25-2.05 0.82-5.77 2.52-8.27 3.77-2.5 1.25-5.34 2.26-6.3 2.25-0.96-0.01-1.75 0.43-1.75 0.98 0 0.55-0.9 1-2 1-1.1 0-2.23 0.45-2.5 1-0.27 0.55-1.85 1-3.5 1-1.65 0-3.23 0.45-3.5 1-0.27 0.55-1.62 1-3 1-1.37 0-2.73 0.45-3 1-0.27 0.55-3.03 1.34-6.12 1.75-3.08 0.41-5.78 1.09-6 1.5-0.21 0.41-1.5 0.75-2.88 0.75-1.37 0-2.72 0.45-3 1-0.27 0.55-1.85 1-3.5 1-1.65 0-3.22 0.45-3.5 1-0.27 0.55-1.85 1-3.5 1-1.65 0-3.22 0.45-3.5 1-0.27 0.55-2.07 1-4 1-1.92 0-3.72 0.45-4 1-0.27 0.55-2.21 1-4.3 1-2.09 0-4.23 0.4-4.75 0.9-0.52 0.49-2.97 1.19-5.45 1.54-2.47 0.36-6.86 0.63-9.75 0.61-2.89-0.03-5.47 0.4-5.75 0.95-0.29 0.58-5.33 1-12 1-6.32 0-12.4-0.45-13.5-1-1.1-0.55-2-1.45-2-2 0-0.55-1.37-2.46-3.03-4.25-2.72-2.91-3.03-3.9-3-9.5 0.01-3.44 0.48-6.48 1.03-6.75 0.55-0.27 1-2.52 1-5 0-2.48 0.45-4.73 1-5 0.55-0.27 1-2.52 1-5 0-2.48 0.45-4.73 1-5 0.55-0.27 1-2.3 1-4.5 0-2.2 0.34-4.17 0.75-4.39 0.41-0.21 1.1-3.02 1.53-6.25 0.43-3.22 1.28-7.43 1.87-9.36 0.6-1.93 1.49-4.29 1.97-5.25 0.49-0.96 0.88-3.1 0.88-4.75 0-1.65 0.45-3.23 1-3.5 0.55-0.27 1-1.85 1-3.5 0-1.65 0.45-3.23 1-3.5 0.55-0.27 1-1.63 1-3 0-1.38 0.45-2.73 1-3 0.55-0.27 1-2.07 1-4 0-1.93 0.42-3.61 0.94-3.75 0.51-0.14 1.3-2.62 2.56-10.78l-8.05 0.01c-5.11 0.01-8.5 0.48-9.27 1.27-0.96 0.99-1.21 0.52-1.21-2.25 0-1.93 0.54-4.06 1.21-4.75 0.67-0.69 2.71-1.25 4.52-1.25 1.82 0 3.3-0.45 3.3-1 0-0.56 2.76-1 6.25-1.01 5.84-0.01 6.33-0.19 7.51-2.75 0.69-1.51 1.26-3.53 1.25-4.49-0.01-0.96 0.44-1.98 0.99-2.25 0.55-0.27 1-1.63 1-3 0-1.38 0.45-2.73 1-3 0.55-0.27 1-1.63 1-3 0-1.38 0.45-2.5 1-2.5 0.55 0 1-1.01 1.01-2.25 0-1.24 0.69-3.6 1.53-5.25 0.84-1.65 1.51-3.79 1.49-4.75-0.02-0.96 0.42-1.97 0.97-2.25 0.55-0.28 1-1.63 1-3 0-1.38 0.45-2.5 1-2.5 0.55 0 1-1.13 1-2.5 0-1.38 0.45-2.72 1-3 0.55-0.28 0.99-1.51 0.98-2.75-0.01-1.24 0.37-2.7 0.85-3.25 0.47-0.55 1.66-3.7 2.64-7 0.98-3.3 2.19-6.45 2.68-7 0.48-0.55 0.88-1.79 0.87-2.75-0.01-0.96 0.88-3.32 1.98-5.25 1.1-1.93 2-4.4 2-5.5 0-1.1 0.45-2 1-2 0.55 0 1-0.9 1-2 0-1.1 0.42-2.79 0.94-3.75 0.51-0.96 2.15-5.13 3.63-9.25 1.49-4.13 3.1-7.95 3.58-8.5 0.49-0.55 0.88-2.13 0.88-3.5 0-2.47-0.08-2.49-5.77-1.71-3.17 0.44-6.19 1.23-6.71 1.75-0.52 0.53-2.21 0.96-3.75 0.96-1.54 0-3.02 0.45-3.3 1-0.27 0.55-1.85 1-3.5 1-1.65 0-3 0.45-3 1 0 0.55-1.12 1-2.5 1-1.37 0-2.72 0.45-3 1-0.27 0.55-1.51 1-2.75 1-1.24 0.01-5.17 1.15-8.75 2.55-3.57 1.4-7.85 2.41-9.5 2.24-2.67-0.26-2.97-0.62-2.75-3.29 0.14-1.65 1.12-3.9 2.17-5 1.06-1.1 3.54-2.68 5.52-3.5 1.98-0.82 3.59-1.84 3.58-2.25-0.01-0.41 0.88-0.75 1.98-0.75 1.1 0 3.91-0.61 6.25-1.36 2.34-0.74 6.28-1.91 8.75-2.59 2.48-0.69 5.29-1.65 6.25-2.15 0.96-0.49 2.65-0.9 3.75-0.9 1.1 0 2.23-0.45 2.5-1 0.28-0.55 2.3-1 4.5-1 2.2 0 4.23-0.45 4.5-1 0.28-0.55 2.3-1 4.5-1 2.78 0 4.72-0.69 6.36-2.25 1.3-1.24 3.15-4.5 4.11-7.25 0.96-2.75 2.25-6.24 2.88-7.75 0.63-1.52 1.49-2.75 1.9-2.75 0.41 0 0.74-0.79 0.74-1.75-0.01-0.96 1.45-4.7 3.25-8.3 1.79-3.6 3.94-8.22 4.76-10.26 0.83-2.05 1.84-3.72 2.25-3.71 0.41 0.01 0.75-0.88 0.75-1.98 0-1.1 0.34-1.99 0.75-1.97 0.41 0.01 1.39-1.12 2.18-2.53 0.79-1.41 2.37-2.97 3.5-3.47 1.14-0.49 2.41-0.93 2.82-0.97zm-189.5 238.69c0.14 1.24 0.7 2.25 1.25 2.25 0.55 0 0.99 0.56 0.97 1.25-0.02 0.69 0.9 2.15 2.04 3.25 1.14 1.1 2.81 4.02 3.7 6.5 0.89 2.48 2.44 5.4 3.44 6.5 0.99 1.1 1.8 2.45 1.8 3-0.01 0.55 0.91 1.9 2.05 3 1.14 1.1 2.05 2.56 2.03 3.25-0.02 0.69 0.31 1.26 0.72 1.27 0.41 0.01 2.1 2.04 3.75 4.5 1.65 2.46 3.34 4.48 3.75 4.48 0.41 0 0.74 0.56 0.73 1.25-0.01 0.69 1.61 2.82 3.6 4.75 1.99 1.93 3.91 4.25 4.27 5.16 0.36 0.91 4.81 5.97 9.9 11.25 5.09 5.27 9.81 9.58 10.5 9.57 0.69-0.01 2.83 1.58 4.75 3.52 1.93 1.94 3.95 3.55 4.5 3.56 0.55 0.01 1.68 0.8 2.5 1.74 0.83 0.95 3.19 2.95 5.25 4.46 2.06 1.51 4.09 2.73 4.5 2.71 0.41-0.02 1.65 0.89 2.75 2.03 1.1 1.14 2.79 2.05 3.75 2.03 0.96-0.02 1.98 0.87 2.25 1.97 0.29 1.17 1.33 2 2.5 2 1.1 0 2 0.45 2 1 0 0.55 0.68 1 1.5 1 0.83 0 3.3 0.79 5.5 1.75 2.21 0.96 4.01 2.09 4 2.5 0 0.41 0.9 0.75 2 0.75 1.1 0 2.11 0.34 2.25 0.75 0.14 0.41 2.16 1.76 4.5 3 2.34 1.24 4.81 2.24 5.5 2.22 0.69-0.02 2.6 0.65 4.25 1.49 1.65 0.84 4.01 1.53 5.25 1.53 1.24 0.01 2.25 0.46 2.25 1.01 0 0.55 1.13 1 2.5 1 1.38 0 2.73 0.45 3 1 0.28 0.55 1.63 1 3 1 1.38 0 2.73 0.45 3 1 0.28 0.55 2.08 1 4 1 1.93 0 3.5 0.45 3.5 1 0 0.55-1.57 1-3.5 1-1.92 0-3.72-0.45-4-1-0.27-0.55-2.07-1-4-1-1.92 0-3.5-0.45-3.5-1 0-0.55-1.12-1-2.5-1-1.37 0-2.72-0.45-3-1-0.27-0.55-1.29-0.99-2.25-0.97-0.96 0.02-3.1-0.65-4.75-1.49-1.65-0.84-3.79-1.53-4.75-1.53-0.96-0.01-3.44-0.98-5.5-2.16-2.06-1.19-6.11-3.44-9-5-2.89-1.57-5.92-2.85-6.75-2.85-0.82 0-1.72-0.56-1.99-1.25-0.27-0.69-2.08-1.93-4.02-2.75-1.94-0.82-3.52-1.84-3.51-2.25 0.01-0.41-0.54-0.74-1.23-0.72-0.69 0.02-2.15-0.89-3.25-2.03-1.1-1.14-2.45-2.04-3-2-0.55 0.04-1.9-0.86-3-2-1.1-1.14-2.45-2.04-3-2.01-0.55 0.04-2.12-1.09-3.5-2.49-1.37-1.4-2.95-2.54-3.5-2.52-0.55 0.02-3.92-2.89-7.5-6.48-3.57-3.59-6.95-6.51-7.5-6.5-0.55 0.01-3.31-2.34-6.14-5.24-2.82-2.89-5.63-6.27-6.25-7.51-0.61-1.24-1.78-2.25-2.61-2.25-0.82 0-1.49-0.56-1.48-1.25 0-0.69-1.8-3.05-4.02-5.25-2.22-2.2-4.01-4.45-3.99-5 0.02-0.55-1.36-2.35-3.06-4-1.7-1.65-3.83-4.57-4.74-6.5-0.9-1.93-2.46-4.4-3.46-5.5-0.99-1.1-2.07-2.9-2.4-4-0.32-1.1-1.32-2.85-2.22-3.89-0.9-1.04-2.65-3.97-3.9-6.5-1.25-2.54-2.25-5.29-2.23-6.11 0.02-0.82-0.47-1.95-1.09-2.5-0.68-0.61-0.79-1.59-0.27-2.5 0.68-1.19 0.91-1.04 1.11 0.75zm85 85.38c0.41 0.22 2.89 1.4 5.5 2.63 2.61 1.23 4.98 2.69 5.25 3.24 0.28 0.55 3.31 2.34 6.75 3.97 3.44 1.63 6.81 2.98 7.5 3 0.69 0.02 2.83 0.93 4.75 2.03 1.93 1.1 4.18 2 5 2 0.83 0 3.08 0.9 5 2 1.93 1.1 4.4 2 5.5 2 1.1 0 2 0.45 2 1 0 0.55 1.13 1 2.5 1 1.38 0 2.5 0.45 2.5 1 0 0.55-1.35 1-3 1-1.65 0-3.22-0.45-3.5-1-0.27-0.55-1.4-1-2.5-1-1.1 0-3.57-0.9-5.5-2-1.92-1.1-4.4-2-5.5-2-1.1 0-2.11-0.34-2.25-0.75-0.14-0.41-2.27-1.74-4.75-2.94-2.47-1.2-5.96-2.44-7.75-2.75-1.79-0.31-3.81-1.46-4.5-2.56-0.69-1.11-2.04-2.01-3-2-0.96 0-1.75-0.45-1.75-1 0-0.55-0.9-1-2-1-1.1 0-2-0.34-2-0.75 0.01-0.41-0.98-1.2-2.18-1.75-1.21-0.55-2.33-1.62-2.51-2.37-0.17-0.76 0.03-1.21 0.44-1z"/>
</svg>