<svg version="1.2" xmlns="http://www.w3.org/2000/svg" viewBox="0 0 970 250" width="970" height="250">
	<style>
		.s0 { fill: #ffffff } 
	</style>
	<path id="Path 0" fill-rule="evenodd" class="s0" d="m133.5 7.58c6.19 0.26 15.59 1.49 21.5 2.82 5.78 1.29 14.55 4.09 19.5 6.21 4.95 2.12 12.94 6.45 17.75 9.62 4.81 3.17 12.63 9.48 17.36 14.02 4.74 4.54 10.81 11.17 13.51 14.75 2.69 3.58 6.88 10.33 9.31 15 2.42 4.67 5.53 11.88 6.9 16 1.37 4.13 3.21 11.78 4.09 17 0.87 5.22 1.59 15.13 1.58 22 0 6.88-0.68 16.32-1.5 21-0.83 4.68-2.67 12.1-4.11 16.5-1.43 4.4-4.31 11.38-6.4 15.5-2.09 4.13-6.18 10.88-9.09 15-2.91 4.13-8.91 11.1-13.34 15.5-4.43 4.4-11.43 10.24-15.56 12.97-4.12 2.73-10.88 6.61-15 8.62-4.12 2.01-11.1 4.83-15.5 6.26-4.4 1.43-12.05 3.29-17 4.13-4.95 0.85-11.03 1.5-13.5 1.46-3.37-0.06-4-0.29-2.5-0.91 1.49-0.61 0.6-0.93-9-1.66l6.5-0.32c5.84-0.28 6.14-0.39 3-1.11q-3.46-0.8 4.75-0.37c5.12 0.27 8.25 0.05 8.25-0.57 0-0.55 1.01-0.79 2.25-0.52 1.24 0.26 5.85-0.48 10.25-1.65 4.4-1.17 11.82-3.75 16.5-5.74 4.68-1.99 12.32-6.17 17-9.29 4.68-3.12 11.43-8.32 15-11.56 3.57-3.23 8.79-9 11.59-12.81 2.8-3.81 5.84-8.5 6.76-10.43 0.92-1.93 1.11-2.66 0.41-1.64-0.69 1.02-3.81 5.29-6.93 9.5-3.12 4.2-8.07 9.96-11 12.8-2.93 2.84-8.93 7.72-13.33 10.86-4.4 3.13-10.47 6.94-13.5 8.46-3.03 1.52-6.62 3.06-8 3.42-1.37 0.36-0.36-0.48 2.25-1.87 2.61-1.39 8.69-5.32 13.5-8.73 4.81-3.4 11.61-8.92 15.1-12.25 3.5-3.33 7.32-7.4 8.49-9.05 1.58-2.22 0.19-1.42-5.35 3.08-4.12 3.35-8.84 6.91-10.49 7.91-2.21 1.35-1.95 0.94 1-1.56 2.2-1.86 5.31-4.75 6.9-6.41 1.6-1.66 3.29-2.91 3.75-2.77 0.47 0.14 0.63-0.2 0.35-0.75-0.28-0.55 0.4-1.45 1.5-2 1.1-0.55 4.42-4.71 7.39-9.25 2.96-4.54 6.51-10.5 7.88-13.25 1.37-2.75 3.71-8.82 5.19-13.5 1.49-4.68 3.31-13.68 4.06-20 0.75-6.32 1.43-14.65 1.5-18.5 0.08-3.85-0.55-10.83-1.4-15.5-0.84-4.67-2.51-11.65-3.69-15.5-1.19-3.85-3.74-10.15-5.67-14-1.92-3.85-6.32-11.05-9.77-16-3.44-4.95-9.51-11.92-13.48-15.5-3.96-3.58-9.3-8-11.86-9.84-2.56-1.83-7.8-4.93-11.65-6.88-3.85-1.96-9.7-4.58-13-5.83-3.3-1.25-10.72-3.22-16.5-4.37-5.78-1.16-14.32-2.11-19-2.1-4.67 0-12.44 0.68-17.25 1.51-4.81 0.83-12.24 2.68-16.5 4.11-4.26 1.42-11.35 4.45-15.75 6.73-4.4 2.28-11.38 6.68-15.5 9.78-4.12 3.1-10.21 8.51-13.52 12.01-3.31 3.51-8 9.3-10.43 12.88-2.43 3.58-6.35 10.55-8.72 15.5-2.36 4.95-5.44 13.28-6.84 18.5-1.41 5.22-2.82 13.33-3.15 18-0.34 4.67-0.88 9.02-1.22 9.66-0.34 0.64-0.54-1.61-0.24-11.16l-0.93 7c-0.51 3.85-1.22 7.22-1.58 7.5-0.35 0.28-0.34-4 0.03-9.5 0.38-5.5 1.34-13.04 2.14-16.75 0.8-3.71 1.23-7.2 0.96-7.75-0.27-0.55 0.67-4.26 2.1-8.25 1.43-3.99 4.54-10.85 6.91-15.25 2.37-4.4 6.45-10.92 9.08-14.5 2.62-3.58 7.05-8.91 9.84-11.86 2.79-2.95 7.77-7.52 11.07-10.15 3.3-2.63 9.38-6.78 13.5-9.22 4.13-2.44 10.42-5.61 14-7.04 3.58-1.43 9.88-3.52 14-4.65 4.13-1.13 10.65-2.48 14.5-3 3.85-0.53 11.95-0.75 18-0.5zm101.25 152.42c-1.65 4.68-4.12 10.98-5.49 14-1.38 3.03-2.67 5.84-2.88 6.25-0.21 0.41-0.16 0.75 0.12 0.75 0.28 0 2.25-3.49 4.38-7.75 2.14-4.26 4.78-10.67 5.87-14.25 1.09-3.57 2.54-9.42 3.23-13 0.69-3.57 1.06-7.17 0.82-8-0.23-0.82-1.02 1.88-1.74 6-0.72 4.13-2.66 11.33-4.31 16zm-106.18-115c1.24 0 1.23 0.44-0.04 3.25-0.8 1.79-3.3 7.75-5.55 13.25-2.24 5.5-3.94 10.13-3.78 10.3 0.17 0.16 6.15-0.43 13.3-1.33 7.15-0.89 21.74-1.93 32.42-2.3 17.01-0.59 19.36-0.48 18.92 0.83-0.38 1.13-2.34 1.55-7.92 1.7-4.08 0.11-13.72 0.7-21.42 1.3-7.7 0.61-19.36 2.1-37.83 5.5l-3.93 11c-2.16 6.05-7.04 19.89-17.74 50.5l5.25-0.54c2.89-0.29 7.72-0.73 10.75-0.97 3.03-0.24 11.13-1.15 18-2.02 6.88-0.87 14.19-2.01 16.25-2.53 2.45-0.61 3.92-0.59 4.25 0.06 0.28 0.55-0.4 1.9-1.5 3-1.1 1.1-2.56 2.02-3.25 2.04-0.69 0.03-12.34 1.27-25.9 2.75-13.56 1.49-24.87 2.94-25.12 3.21-0.26 0.28-2.35 6.58-4.64 14-2.29 7.43-5.56 19.35-7.26 26.5-2.48 10.44-2.87 13.44-1.96 15.25 0.85 1.69 2 2.25 4.63 2.25 1.92 0 8.11-0.95 13.75-2.11 5.64-1.16 16.1-3.8 23.25-5.86 7.15-2.06 15.93-4.99 19.5-6.5 3.57-1.52 7.63-2.82 9-2.9 1.62-0.08 2.5 0.4 2.5 1.37 0 0.83-2.47 2.71-5.5 4.2-3.03 1.48-9.32 3.91-14 5.4-4.68 1.48-9.17 2.79-10 2.91-0.83 0.11-2.63 0.67-4 1.23-1.38 0.56-8.35 2.21-15.5 3.65-7.15 1.45-15.25 2.64-18 2.64-4.1 0.02-5.45-0.45-7.5-2.59-2.06-2.15-2.47-3.51-2.35-7.77 0.08-2.85 1.52-11.02 3.21-18.17 1.69-7.15 4.33-17.52 8.64-33.09l-5.25 0.29c-4.13 0.24-5.25-0.02-5.25-1.2 0-0.82 1.01-1.73 2.25-2 1.24-0.28 3.98-0.84 9.96-2l5.77-16.5c3.18-9.07 7.82-21.9 10.31-28.5 2.49-6.6 4.91-12.84 5.37-13.87 0.75-1.66 0.52-1.78-2.16-1.11-1.65 0.41-8.4 2.49-15 4.62-6.6 2.12-12.35 3.53-12.77 3.11-0.43-0.41-0.56-1.42-0.29-2.25 0.26-0.82 1.96-2.24 3.77-3.15 1.81-0.91 6.89-2.77 11.29-4.14 4.4-1.37 9.8-2.78 12-3.14 2.2-0.36 4.47-0.97 5.05-1.36 0.58-0.39 3.28-5.87 6-12.17 2.72-6.31 5.77-12.49 6.77-13.75 0.99-1.26 2.46-2.29 3.25-2.29zm149.43 44h19.5c16.44 0 19.58 0.24 20 1.5 0.27 0.83 0.51 2.74 0.52 4.25 0.01 1.51-0.53 3.31-1.2 4-0.86 0.88-5.2 1.25-27.82 1.25v20h24l-0.5 10.5-23.5 0.5v18l12.75 0.03c10.69 0.02 13.04 0.3 14.53 1.75 1.01 0.97 1.77 3.13 1.75 4.97-0.02 1.98-0.62 3.45-1.53 3.75-0.82 0.28-9.82 0.5-38.5 0.5zm68.5 0c6.29 0 6.52 0.09 7.07 2.75 0.31 1.51 1.21 3.99 2 5.5 0.78 1.51 1.43 3.65 1.43 4.75 0 1.1 0.45 2.23 1 2.5 0.55 0.28 0.98 1.51 0.96 2.75-0.03 1.24 0.68 2.93 1.58 3.75 0.89 0.83 1.4 2.18 1.12 3-0.28 0.83 0.12 2.4 0.88 3.5 0.77 1.1 1.41 3.01 1.43 4.25 0.02 1.24 0.48 2.48 1.03 2.75 0.55 0.28 0.99 1.51 0.98 2.75-0.01 1.24 0.65 3.15 1.47 4.25 0.82 1.1 1.5 3.01 1.52 4.25 0.02 1.24 0.48 2.48 1.03 2.75 0.55 0.28 0.99 1.74 0.98 3.25-0.01 2.66 0.03 2.69 1.47 0.75 0.82-1.1 1.5-3.24 1.52-4.75 0.02-1.53 0.69-2.97 1.53-3.25 0.89-0.3 1.5-1.72 1.5-3.5 0-1.65 0.45-3.22 1-3.5 0.55-0.27 1.01-1.51 1.03-2.75 0.02-1.24 0.7-3.15 1.52-4.25 0.82-1.1 1.48-3.01 1.47-4.25-0.01-1.24 0.43-2.47 0.98-2.75 0.55-0.27 1-1.62 1-3 0-1.37 0.45-2.72 1-3 0.55-0.27 0.98-1.74 0.96-3.25-0.03-1.51 0.67-3.42 1.54-4.25 0.87-0.82 1.57-2.51 1.54-3.75-0.02-1.24 0.41-2.47 0.96-2.75 0.55-0.27 1-1.4 1-2.5 0-1.78 0.67-2 12-2l0.04 3.25c0.03 1.79-0.67 3.93-1.54 4.75-0.87 0.83-1.57 2.74-1.54 4.25 0.02 1.51-0.41 2.75-0.96 2.75-0.55 0-1 0.9-1 2 0 1.1-0.75 3.46-1.67 5.25-0.92 1.79-2.04 4.04-2.5 5-0.46 0.96-0.83 2.88-0.83 4.25 0 1.38-0.45 2.5-1 2.5-0.55 0-1 1.35-1 3 0 1.78-0.61 3.2-1.5 3.5-0.89 0.3-1.5 1.72-1.5 3.5 0 1.65-0.45 3.23-1 3.5-0.55 0.28-0.98 1.51-0.96 2.75 0.03 1.24-0.67 2.93-1.54 3.75-0.87 0.83-1.57 2.51-1.54 3.75 0.02 1.24-0.41 2.48-0.96 2.75-0.55 0.28-1 1.4-1 2.5 0 1.1-0.79 3.36-1.75 5.01-1.65 2.85-2.1 3.01-8 3-5.82-0.01-6.25-0.16-6.21-2.26 0.03-1.24-0.67-2.92-1.54-3.75-0.87-0.82-1.57-2.74-1.54-4.25 0.02-1.51-0.41-2.75-0.96-2.75-0.55 0-0.98-1.24-0.96-2.75 0.03-1.51-0.67-3.42-1.54-4.25-0.87-0.82-1.57-2.51-1.54-3.75 0.02-1.24-0.41-2.47-0.96-2.75-0.55-0.27-0.99-1.51-0.98-2.75 0.01-1.24-0.42-2.7-0.94-3.25-0.53-0.55-1.2-2.35-1.5-4-0.3-1.65-1-3.11-1.56-3.25-0.56-0.14-1.02-1.37-1.02-2.75 0-1.37-0.45-2.72-1-3-0.55-0.27-0.99-1.51-0.98-2.75 0.01-1.24-0.65-3.15-1.47-4.25-0.82-1.1-1.5-3.01-1.52-4.25-0.02-1.24-0.48-2.47-1.03-2.75-0.55-0.27-1-1.85-1-3.5 0-1.78-0.61-3.2-1.5-3.5-0.82-0.27-1.5-1.4-1.5-2.5 0-1.79 0.67-2 6.5-2zm85.47 0h40.03v4c0 2.2-0.23 4.68-0.5 5.5-0.41 1.23-2.89 1.5-27.5 1.5v20l23.5 0.5v10l-23.5 0.5-0.5 18 12.5-0.03c10.69-0.03 12.76 0.22 14.28 1.75 1.17 1.17 1.68 2.97 1.22 8.78h-39zm70.03 0l6.75 0.02c6.73 0.02 6.75 0.03 9.5 4 1.51 2.19 2.74 4.32 2.74 4.73 0 0.41 1.13 1.99 2.5 3.5 1.38 1.51 2.51 3.43 2.51 4.25 0 0.83 1.11 2.51 2.48 3.75 1.36 1.24 2.49 2.7 2.5 3.25 0.01 0.55 1.16 2.35 2.55 4 1.39 1.65 2.51 3.56 2.5 4.25-0.02 0.69 0.3 1.24 0.72 1.24 0.41-0.01 2.1 2.24 3.75 5.01 1.65 2.77 3.33 5.02 3.75 5.01 0.41 0 0.75 0.78 0.76 1.74 0.01 0.96 1.02 2.72 4.49 6.05l0.75-4.65c0.42-2.56 0.76-13.99 0.75-46.15h11v71h-6c-4.67 0-6.45-0.44-8-2-1.1-1.1-2-2.45-2-3 0-0.55-0.45-1-1-1-0.55 0-1.25-0.79-1.55-1.75-0.3-0.96-1.08-2.76-1.75-4-0.66-1.24-1.54-2.26-1.95-2.25-0.42 0-0.75-0.67-0.75-1.5 0-0.82-0.68-1.72-1.5-2-0.83-0.27-1.5-1.06-1.51-1.75 0-0.69-1.13-2.6-2.53-4.25-1.39-1.65-2.51-3.56-2.49-4.25 0.01-0.69-0.42-1.25-0.97-1.25-0.55 0-1.65-1.46-2.44-3.25-0.79-1.79-2.36-4.26-3.5-5.5-1.13-1.24-2.07-2.81-2.08-3.5-0.01-0.69-1.14-2.26-2.5-3.5-1.37-1.24-2.48-2.92-2.48-3.75 0-0.82-0.68-1.72-1.5-2-1.11-0.37-1.48 0.22-1.4 2.25 0.06 1.51 0.06 12.99-0.1 48.25h-4.5c-2.48 0-5.18-0.22-6-0.5-1.3-0.43-1.5-5.28-1.5-35.5zm52.8 66.2c0.11 1.54 0.65 2.8 1.2 2.8 0.55 0 1.24-0.56 1.55-1.25 0.3-0.69 0.39-2.54 0.19-4.11-0.31-2.41-0.59-2.66-1.76-1.55-0.76 0.72-1.29 2.57-1.18 4.11zm35.09-66.2h47.11v5c0 3.56-0.44 5.14-1.5 5.5-0.83 0.28-4.65 0.5-15.5 0.5l0.04 28.75c0.03 22.26-0.25 29.03-1.25 30.01-0.78 0.75-3.29 1.15-11.29 0.74l-0.5-59.5-16.5-0.5zm23.6 54c1.38 0 2.73 0.56 3.01 1.25 0.28 0.69 0.28-1 0-3.75-0.29-2.75-0.52-5.79-0.51-6.75 0-1.2-0.78-1.75-2.5-1.75-2.36 0-2.5 0.3-2.5 5.5 0 5.2 0.14 5.5 2.5 5.5zm-0.5 10.5c1.2-0.3 2.01 0 2.02 0.75 0.01 0.91 0.21 0.94 0.75 0.1 0.4-0.64 0.73-2.66 0.73-4.5 0-2.89-0.37-3.39-2.67-3.67-2.51-0.29-2.68-0.05-2.75 3.75-0.07 3.59 0.16 4.01 1.92 3.57zm51-64.5h41v5c0 3.56-0.43 5.14-1.5 5.5-0.82 0.28-7.35 0.5-27.5 0.5l0.5 19.5 11.5 0.28c6.33 0.16 12.18 0.52 13 0.8 1.18 0.4 1.35 1.42 0.78 4.72-0.4 2.31-1.3 4.53-2 4.93-0.7 0.41-6.34 0.75-23.78 0.77v18l13.25-0.04c9.58-0.04 13.6 0.31 14.52 1.25 0.7 0.72 1.15 3.06 0.73 9.29l-19.5 0.25c-14.73 0.18-19.68-0.06-20.23-1-0.4-0.69-0.74-16.66-0.75-35.5zm66 0h52v6c0 3.33-0.45 6-1 6-0.55 0-1 0.45-1 1 0 0.55-1.06 2.01-2.36 3.25-1.29 1.24-3.09 3.71-4 5.5-0.9 1.79-2.09 3.25-2.64 3.25-0.55 0-1.7 1.46-2.55 3.25-0.85 1.79-3.09 5.28-4.99 7.75-1.89 2.48-4.35 5.51-5.45 6.75-1.11 1.24-2.01 2.59-2.01 3 0 0.41-1.12 1.99-2.5 3.5-1.37 1.51-2.5 2.98-2.5 3.25 0 0.28-1.24 2.1-5.5 7.59l17.5-0.08c15.52-0.07 17.7 0.13 19.28 1.71 1.17 1.17 1.68 2.97 1.22 8.78l-53.5 0.5-0.03-4.75c-0.03-3.72 0.51-5.35 2.5-7.5 1.39-1.51 3.2-4.1 4.03-5.75 0.82-1.65 2.31-3.56 3.29-4.25 0.99-0.69 2.57-2.94 3.5-5 0.94-2.06 2.05-3.74 2.46-3.72 0.41 0.01 1.42-1.22 2.24-2.75 0.82-1.53 2.96-4.24 4.75-6.03 1.79-1.79 3.27-3.81 3.28-4.5 0-0.69 1.37-2.82 3.03-4.75 1.66-1.92 3.01-3.72 2.99-4-0.02-0.27 1.12-1.85 5.13-6.5l-18.34-0.56c-10.08-0.3-18.44-0.64-18.58-0.75-0.14-0.1-0.25-2.44-0.25-5.19zm82.97 0h39.03l0.54 3.75c0.3 2.06 0.3 4.54 0 5.5-0.48 1.55-2.03 1.75-26.54 1.75v20h24l-0.5 10.5-23.5 0.5v18h12.5c11.5 0 12.58 0.16 13.5 2 0.55 1.1 0.98 3.24 0.97 4.75-0.02 1.51-0.7 3.65-1.52 4.75-0.82 1.1-1.48 1.44-1.47 0.75 0.02-0.95-4.42-1.31-36.48-1.75zm72.02 0h15.5c9.34 0 15.7 0.4 16 1 0.28 0.55 1.63 1 3 1 1.76 0 3.69 1.41 6.5 4.75 2.19 2.61 3.99 5.76 4 7 0 1.24 0.45 3.15 1 4.25 0.69 1.38 0.62 3.5-0.25 6.82-0.68 2.65-2.37 6.47-3.75 8.49-1.49 2.2-3.3 3.67-4.5 3.66-1.14-0.02-2.64 1.12-3.5 2.67-1.15 2.06-1.21 2.77-0.25 3.02 0.69 0.19 1.26 1.13 1.27 2.09 0.01 0.96 1.14 2.76 2.5 4 1.37 1.24 2.48 2.93 2.48 3.75 0 0.83 0.57 2.19 1.25 3.03 0.69 0.85 1.82 2.2 2.5 3 0.69 0.81 1.25 1.92 1.25 2.47 0 0.55 0.45 1 1 1 0.55 0 1 1.13 1 2.5 0 1.38 0.45 2.5 1 2.5 0.55 0 1 0.9 1 2 0 1.79-0.66 2-6.5 2-5.51 0-6.5-0.26-6.51-1.75-0.01-0.96-1.14-2.76-2.5-4-1.37-1.24-2.49-3.15-2.49-4.25 0-1.1-0.45-2-1-2-0.55 0-0.98-0.79-0.95-1.75 0.02-0.96-0.67-2.42-1.55-3.25-0.87-0.82-1.56-2.06-1.54-2.75 0.02-0.69-1.07-2.26-2.44-3.5-1.36-1.24-2.48-2.92-2.48-3.75 0-0.82-0.57-2.07-1.27-2.77-0.7-0.69-2.95-1.26-8.77-1.23l0.02 11.25c0.01 9.08-0.23 11.01-1.25 9.98-0.7-0.69-2.5-1.26-4.02-1.25-2.62 0.02-2.73 0.22-2.5 4.52 0.25 4.49 0.26 4.5 4 4.5 2.07 0 3.76 0.34 3.76 0.75 0 0.41-2.48 0.86-11.01 1.25zm11 31c14.21 0.05 16.09-0.33 19-2.26 3.21-2.12 3.53-2.76 3.78-7.77 0.24-4.83-0.05-5.79-2.5-8.24-2.61-2.61-3.28-2.77-11.53-2.75l-8.75 0.02zm-862.02 64.75c2.21 3.44 4.02 6.48 4.02 6.75 0 0.28 1.23 1.96 2.73 3.75 1.49 1.79 6.1 6.65 10.25 10.81 4.14 4.16 10.45 9.55 14.02 11.99 3.58 2.44 10.1 6.33 14.5 8.66 4.4 2.33 7.33 4.25 6.5 4.27-0.82 0.02-5.55-2.26-10.5-5.08-4.95-2.81-11.25-6.83-14-8.92-2.75-2.09-9.07-8.01-14.05-13.14-4.98-5.14-10.95-12.26-13.27-15.84-2.31-3.57-4.21-7.17-4.21-8-0.01-0.82 1.8 1.31 4.01 4.75zm38.89 34.47c0.35 0.21 5.36 2.74 11.13 5.61 5.78 2.88 9.38 4.94 8 4.57-1.37-0.36-6.43-2.63-11.25-5.03-4.81-2.4-8.69-4.63-8.63-4.95 0.07-0.32 0.4-0.41 0.75-0.2z"/>
</svg>