<svg version="1.2" xmlns="http://www.w3.org/2000/svg" viewBox="0 0 308 308" width="308" height="308">
	<style>
		.s0 { fill: #fefefe } 
	</style>
	<path id="Path 0" fill-rule="evenodd" class="s0" d="m155 31.1c5.22-0.03 13.32 0.61 18 1.43 4.68 0.82 10.97 2.19 14 3.04 3.03 0.85 8.65 2.73 12.5 4.17 3.85 1.45 10.15 4.41 14 6.58 3.85 2.18 11.02 7.16 15.93 11.07 4.91 3.91 11.9 10.48 15.52 14.61 3.63 4.12 8.71 10.87 11.29 15 2.59 4.12 6.22 11.1 8.09 15.5 1.86 4.4 4.11 10.92 5 14.5 0.88 3.58 2.12 9.87 2.75 14 0.69 4.49 0.95 13.92 0.67 23.5-0.4 13.2-0.95 17.75-3.17 26-1.49 5.5-4.73 14.28-7.21 19.5-2.49 5.22-6.58 12.43-9.09 16-2.52 3.57-6.65 8.9-9.18 11.82-2.53 2.93-8.65 8.68-13.6 12.79-5.22 4.33-12.99 9.5-18.5 12.32-5.22 2.66-12.65 5.97-16.5 7.35-3.85 1.37-11.39 3.45-16.75 4.61-5.36 1.16-12.22 2.11-15.25 2.11-3.33 0-5.3-0.39-5-1 0.28-0.56-0.83-1-2.5-1-1.65 0-3-0.45-3-1 0-0.55 1.35-1 3-1 1.65 0 3-0.45 3-1 0-0.57 2.7-0.97 6.25-0.93 3.44 0.04 9.18-0.41 12.75-1.01 3.57-0.59 9.43-2.07 13-3.29 3.57-1.21 7.18-2.92 8-3.79 0.82-0.88 6-4.57 11.5-8.21 5.5-3.64 13.15-9.42 17-12.84 3.85-3.43 7.2-6.73 7.44-7.33 0.24-0.61-2.34 1.04-5.75 3.65-3.4 2.61-6.4 4.64-6.66 4.5-0.26-0.14 3.4-4.07 8.15-8.75 4.88-4.81 11.18-12.41 14.5-17.5 3.22-4.95 7.17-12.38 8.76-16.5 1.6-4.13 3.91-12.22 5.13-18 1.74-8.21 2.24-14 2.3-26.5 0.07-13.8-0.25-17.24-2.29-25-1.31-4.95-3.59-11.92-5.08-15.5-1.48-3.58-4.62-9.65-6.97-13.5-2.35-3.85-6.64-9.92-9.55-13.5-2.9-3.58-7.91-8.8-11.13-11.6-3.22-2.81-8.55-6.99-11.85-9.28-3.3-2.3-10.5-6.12-16-8.49-5.5-2.38-12.93-5.03-16.5-5.89-3.57-0.86-10.55-2.11-15.5-2.78-6.91-0.93-11.32-0.94-19-0.06-5.5 0.64-12.93 1.87-16.5 2.74-3.58 0.87-9.87 2.96-14 4.64-4.12 1.69-10.87 5.08-15 7.54-4.12 2.46-10.6 7-14.4 10.08-3.79 3.08-9.33 8.52-12.32 12.1-2.98 3.58-7.57 10.1-10.19 14.5-2.62 4.4-6.37 12.05-8.34 17-1.96 4.95-4.24 12.38-5.07 16.5-0.83 4.12-1.77 10.76-2.09 14.75-0.42 5.17-1.02 7.39-2.09 7.75-0.83 0.28-1.5 1.18-1.5 2 0 0.82-0.45 1.5-1 1.5-0.57 0-1-3-1-7 0-3.85 0.43-7.79 0.96-8.75 0.53-0.96 1.64-6.7 2.47-12.75 0.84-6.05 2.67-13.92 4.08-17.5 1.41-3.58 4.17-9.42 6.13-13 1.96-3.58 5.66-9.42 8.21-13 2.55-3.58 7.34-9.37 10.65-12.88 3.3-3.5 9.38-8.91 13.5-12.01 4.13-3.11 11.55-7.72 16.5-10.25 4.95-2.54 11.92-5.56 15.5-6.73 3.58-1.17 10.32-2.99 15-4.04 4.92-1.11 12.5-1.95 18-1.99zm1.13 38.23c0.48 0.23 0.85 1.04 0.82 1.79-0.03 0.76-2.05 6.44-4.5 12.63-2.45 6.19-4.34 11.43-4.2 11.65 0.14 0.22 5.65-0.2 12.25-0.94 6.6-0.74 20.89-1.71 31.75-2.15 18.46-0.76 19.76-0.69 19.75 0.94 0 1.02-0.94 1.93-2.25 2.19-1.24 0.23-9.68 0.89-18.75 1.45-9.07 0.56-22.8 1.98-30.5 3.15-7.7 1.17-14.45 2.49-15 2.93-0.55 0.43-5.61 13.9-11.25 29.91-5.64 16.02-10.14 29.3-10 29.51 0.14 0.22 6.32-0.21 13.75-0.96 7.43-0.74 18.22-2.02 24-2.83 5.78-0.81 11.18-1.72 12-2.03 0.82-0.3 2.11-0.22 2.85 0.19 1.04 0.57 1.1 1.25 0.25 2.99-0.68 1.38-2.54 2.6-4.85 3.16-2.06 0.5-12.97 1.87-24.25 3.03-11.28 1.17-21.85 2.48-23.5 2.92-2.73 0.73-3.25 1.59-5.82 9.72-1.56 4.91-4.59 15.67-6.75 23.92-2.16 8.25-3.94 16.35-3.97 18-0.03 1.65 0.7 3.68 1.62 4.5 1.45 1.3 2.63 1.33 8.8 0.21 3.91-0.71 13.19-2.82 20.62-4.69 7.43-1.88 19.57-5.49 27-8.03 10.47-3.58 13.66-4.32 14.2-3.3 0.38 0.72-0.07 2.16-1 3.2-0.94 1.05-3.95 2.91-6.7 4.14-2.75 1.23-11.3 4.09-19 6.36-7.7 2.26-18.61 5.01-24.25 6.11-5.64 1.1-12.72 2-15.75 2-4.89 0-5.78-0.33-8-3-1.55-1.86-2.5-4.24-2.49-6.25 0.01-1.79 1.14-8.65 2.52-15.25 1.37-6.6 3.96-17.5 8.97-36.45l-4.75-0.02c-4.07-0.03-4.75-0.31-4.75-2.03 0-1.47 1-2.26 3.75-2.99 2.06-0.55 4.42-0.98 5.25-0.96 0.83 0.02 1.99-0.54 2.58-1.26 0.59-0.71 4.07-9.84 7.72-20.29 3.65-10.45 8.22-23.05 10.14-28 1.93-4.95 3.28-9.22 3-9.5-0.27-0.28-3.75 0.54-7.72 1.8-3.97 1.27-10.14 3.16-13.72 4.21-3.58 1.05-6.84 1.7-7.25 1.45-0.41-0.25-0.75-1.36-0.75-2.46 0-1.31 1.3-2.65 3.75-3.89 2.06-1.04 7.58-3.05 12.25-4.47 4.68-1.41 10.3-3.01 12.5-3.55 3.91-0.95 4.12-1.24 9.5-12.72 3.03-6.47 6.35-12.81 7.38-14.11 1.04-1.29 2.28-2.16 2.75-1.93z"/>
</svg>